0
SECTION
2
HEADER
9
$INSUNITS
70
4
9
$ACADVER
1
AC1014
9
$HANDSEED
5
FFFF
0
ENDSEC
0
SECTION
2
TABLES
0
TABLE
2
VPORT
5
8
100
AcDbSymbolTable
0
ENDTAB
0
TABLE
2
LTYPE
5
5
100
AcDbSymbolTable
0
LTYPE
5
14
100
AcDbSymbolTableRecord
100
AcDbLinetypeTableRecord
2
BYBLOCK
70
0
0
LTYPE
5
15
100
AcDbSymbolTableRecord
100
AcDbLinetypeTableRecord
2
BYLAYER
70
0
0
ENDTAB
0
TABLE
2
LAYER
5
2
100
AcDbSymbolTable
70
2
0
LAYER
5
50
100
AcDbSymbolTableRecord
100
AcDbLayerTableRecord
2
0
70
0
6
CONTINUOUS
0
ENDTAB
0
TABLE
2
STYLE
5
3
100
AcDbSymbolTable
70
1
0
STYLE
5
11
100
AcDbSymbolTableRecord
100
AcDbTextStyleTableRecord
2
STANDARD
70
0
0
ENDTAB
0
TABLE
2
VIEW
5
6
100
AcDbSymbolTable
70
0
0
ENDTAB
0
TABLE
2
UCS
5
7
100
AcDbSymbolTable
70
0
0
ENDTAB
0
TABLE
2
APPID
5
9
100
AcDbSymbolTable
70
2
0
APPID
5
12
100
AcDbSymbolTableRecord
100
AcDbRegAppTableRecord
2
ACAD
70
0
0
ENDTAB
0
TABLE
2
DIMSTYLE
5
A
100
AcDbSymbolTable
70
1
0
ENDTAB
0
TABLE
2
BLOCK_RECORD
5
1
100
AcDbSymbolTable
70
1
0
BLOCK_RECORD
5
1F
100
AcDbSymbolTableRecord
100
AcDbBlockTableRecord
2
*MODEL_SPACE
0
BLOCK_RECORD
5
1B
100
AcDbSymbolTableRecord
100
AcDbBlockTableRecord
2
*PAPER_SPACE
0
ENDTAB
0
ENDSEC
0
SECTION
2
BLOCKS
0
BLOCK
5
20
100
AcDbEntity
100
AcDbBlockBegin
2
*MODEL_SPACE
0
ENDBLK
5
21
100
AcDbEntity
100
AcDbBlockEnd
0
BLOCK
5
1C
100
AcDbEntity
100
AcDbBlockBegin
2
*PAPER_SPACE
0
ENDBLK
5
1D
100
AcDbEntity
100
AcDbBlockEnd
0
ENDSEC
0
SECTION
2
ENTITIES
0
SPLINE
5
100
100
AcDbEntity
8
0
100
AcDbSpline
70
0
71
3
72
10
73
6
74
0
42
0.000000001
43
0.0000000001
44
0.0000000001
40
0
40
0
40
0
40
0
40
0.050192106533580097
40
0.17732119772388269
40
0.94976192983459562
40
0.94976192983459562
40
0.94976192983459562
40
0.94976192983459562
10
4.6778642054602395
20
2.928555923234768
30
0
10
4.1008593874343386
20
2.928555923234768
30
0
10
2.1348888023774801
20
2.6800045158402908
30
0
10
-7.3943916915869776
20
-2.614929671578659
30
0
10
-14.03536021612403
20
-10.340574335125508
30
0
10
-19.755369091777098
20
-16.811529909510714
30
0
0
SPLINE
5
101
100
AcDbEntity
8
0
100
AcDbSpline
70
0
71
3
72
10
73
6
74
0
42
0.000000001
43
0.0000000001
44
0.0000000001
40
0.011955131445748609
40
0.011955131445748609
40
0.011955131445748609
40
0.011955131445748609
40
0.28430674049406507
40
0.62961860491190647
40
0.9719674532521605
40
0.9719674532521605
40
0.9719674532521605
40
0.9719674532521605
10
-1.2852545716335904
20
37.330502472298306
30
0
10
-4.3894357054165329
20
32.775460747584624
30
0
10
-9.7449559047380685
20
21.74891107912692
30
0
10
-16.148590107492684
20
3.6287111536315058
30
0
10
-19.560809586373477
20
-9.6254040098579861
30
0
10
-20.623950540846266
20
-16.402898369019685
30
0
0
ARC
5
102
100
AcDbEntity
8
0
100
AcDbCircle
10
-20.129990828804964
20
-16.480382579540766
30
0
40
0.49999999999999944
210
0
220
0
230
1
100
AcDbArc
50
171.08503521777305
51
318.52488771143396
0
ARC
5
103
100
AcDbEntity
8
0
100
AcDbCircle
10
-0.8720763518951633
20
37.048928754182107
30
0
40
0.50000000000000056
210
0
220
-0
230
1
100
AcDbArc
50
34.291708206582733
51
145.7262553754129
0
SPLINE
5
104
100
AcDbEntity
8
0
100
AcDbSpline
70
0
71
3
72
10
73
6
74
0
42
0.000000001
43
0.0000000001
44
0.0000000001
40
0.012708838958977712
40
0.012708838958977712
40
0.012708838958977712
40
0.012708838958977712
40
0.25242283410819183
40
0.6465876884589945
40
0.92136135664949537
40
0.92136135664949537
40
0.92136135664949537
40
0.92136135664949537
10
-0.4589864324825943
20
37.330631999601337
30
0
10
2.1228901465623955
20
33.544565614801257
30
0
10
8.1647943138336352
20
22.221017401624643
30
0
10
13.670756818155114
20
5.4721694192096972
30
0
10
16.23703164086178
20
-7.8457884041484336
30
0
10
17.021280455656743
20
-13.110522956243521
30
0
0
ARC
5
105
100
AcDbEntity
8
0
100
AcDbCircle
10
16.526737274995607
20
-13.184191419384575
30
0
40
0.50000000000000111
210
0
220
0
230
1
100
AcDbArc
50
-158.03538884622137
51
8.4726289300998694
0
SPLINE
5
106
100
AcDbEntity
8
0
100
AcDbSpline
70
0
71
3
72
13
73
9
74
0
42
0.000000001
43
0.0000000001
44
0.0000000001
40
0
40
0
40
0
40
0
40
0.0302799775931516
40
0.059583623561345535
40
0.17471243025950181
40
0.37436686165624394
40
0.58827335084112764
40
0.81445108658691423
40
0.81445108658691423
40
0.81445108658691423
40
0.81445108658691423
10
4.6778642054602395
20
2.928555923234768
30
0
10
4.9285095278327011
20
2.928555923234768
30
0
10
5.4389603577512027
20
2.9239420878459939
30
0
10
6.7147675572588366
20
2.1688930001112867
30
0
10
8.6382360907940257
20
0.031066614597092569
30
0
10
11.118183288458708
20
-3.6011489357366844
30
0
10
13.797352029086946
20
-8.1171580112737463
30
0
10
15.352147728655792
20
-11.608579919547658
30
0
10
16.063029747914022
20
-13.37120834195543
30
0
0
SPLINE
5
107
100
AcDbEntity
8
0
100
AcDbSpline
70
0
71
3
72
12
73
8
74
0
42
0.000000001
43
0.0000000001
44
0.0000000001
40
0
40
0
40
0
40
0
40
0.48128238628794029
40
0.64286246644941869
40
0.81089608508311828
40
0.89835783254054513
40
1
40
1
40
1
40
1
10
14.098468011490635
20
3.5999532580113907
30
0
10
16.240964547947886
20
3.7122367436087234
30
0
10
18.680001277047815
20
3.9324863383767639
30
0
10
21.868872300635779
20
4.6863745852665222
30
0
10
23.558374426775277
20
5.4594682717941918
30
0
10
24.061777372752445
20
6.8800585652692847
30
0
10
24.052864205460239
20
7.7019282525161001
30
0
10
24.052864205460239
20
8.0785559232347701
30
0
0
SPLINE
5
108
100
AcDbEntity
8
0
100
AcDbSpline
70
0
71
3
72
9
73
5
74
0
42
0.000000001
43
0.0000000001
44
0.0000000001
40
0
40
0
40
0
40
0
40
0.42182382106150867
40
1
40
1
40
1
40
1
10
24.052864205460239
20
8.0785559232347701
30
0
10
24.052864205460239
20
9.9375084009824768
30
0
10
23.223831508017987
20
14.148918251417941
30
0
10
21.787339258242142
20
18.152958003773833
30
0
10
20.627864205460238
20
20.428555923234768
30
0
0
SPLINE
5
109
100
AcDbEntity
8
0
100
AcDbSpline
70
0
71
3
72
10
73
6
74
0
42
0.000000001
43
0.0000000001
44
0.0000000001
40
0
40
0
40
0
40
0
40
0.045180583892044719
40
0.1859054328162569
40
0.98992670271595018
40
0.98992670271595018
40
0.98992670271595018
40
0.98992670271595018
10
20.627864205460238
20
20.428555923234768
30
0
10
20.528168766902827
20
20.642353481164374
30
0
10
19.941556841389602
20
21.128095089692529
30
0
10
15.449708338559384
20
22.822345378316712
30
0
10
10.86589214756091
20
22.926543568925894
30
0
10
7.2633295264920026
20
22.928555923234764
30
0
0
LINE
5
110
100
AcDbEntity
8
0
100
AcDbLine
10
16.987864205460241
20
14.578555923234768
30
0
11
10.481065272938583
21
14.578555923598561
31
0
0
ARC
5
111
100
AcDbEntity
8
0
100
AcDbCircle
10
16.987864205460241
20
13.07855592323477
30
0
40
1.5000000000000013
210
0
220
0
230
1
100
AcDbArc
50
-90
51
90
0
LINE
5
112
100
AcDbEntity
8
0
100
AcDbLine
10
16.987864205460241
20
11.578555923234768
30
0
11
11.465899510818179
21
11.578555923463707
31
0
0
LINE
5
113
100
AcDbEntity
8
0
100
AcDbLine
10
-18.732135794539762
20
11.578555923234768
30
0
11
-13.241938440349092
21
11.578555923234493
31
0
0
LINE
5
114
100
AcDbEntity
8
0
100
AcDbLine
10
-18.732135794539762
20
14.578555923234768
30
0
11
-12.170318274721605
21
14.578555923234768
31
0
0
ARC
5
115
100
AcDbEntity
8
0
100
AcDbCircle
10
-18.732135794539762
20
13.07855592323477
30
0
40
1.4999999999999991
210
0
220
-0
230
1
100
AcDbArc
50
90
51
270
0
SPLINE
5
116
100
AcDbEntity
8
0
100
AcDbSpline
70
0
71
3
72
10
73
6
74
0
42
0.000000001
43
0.0000000001
44
0.0000000001
40
0
40
0
40
0
40
0
40
0.045180583892044719
40
0.1859054328162569
40
1
40
1
40
1
40
1
10
-22.372135794539759
20
20.428555923234768
30
0
10
-22.26503966058187
20
20.638743920839513
30
0
10
-21.825217470475295
20
21.133409279679984
30
0
10
-16.80698071847597
20
22.826608133146774
30
0
10
-12.523086441785358
20
22.928555923234775
30
0
10
-8.8721357945397603
20
22.928555923234768
30
0
0
SPLINE
5
117
100
AcDbEntity
8
0
100
AcDbSpline
70
0
71
3
72
9
73
5
74
0
42
0.000000001
43
0.0000000001
44
0.0000000001
40
0
40
0
40
0
40
0
40
0.42182382106150867
40
1
40
1
40
1
40
1
10
-25.797135794539763
20
8.0785559232347701
30
0
10
-25.797135794539763
20
9.9375084009824768
30
0
10
-24.968103097097508
20
14.148918251417941
30
0
10
-23.531610847321659
20
18.152958003773833
30
0
10
-22.372135794539759
20
20.428555923234768
30
0
0
SPLINE
5
118
100
AcDbEntity
8
0
100
AcDbSpline
70
0
71
3
72
12
73
8
74
0
42
0.000000001
43
0.0000000001
44
0.0000000001
40
0
40
0
40
0
40
0
40
0.48128238628794029
40
0.64286246644941869
40
0.81089608508311828
40
0.89835783254054513
40
1
40
1
40
1
40
1
10
-15.842739600570157
20
3.5999532580113911
30
0
10
-17.985236137027407
20
3.7122367436087234
30
0
10
-20.424272866127332
20
3.9324863383767639
30
0
10
-23.613143889715296
20
4.6863745852665222
30
0
10
-25.302646015854798
20
5.4594682717941918
30
0
10
-25.806048961831962
20
6.8800585652692856
30
0
10
-25.797135794539763
20
7.7019282525161001
30
0
10
-25.797135794539763
20
8.0785559232347701
30
0
0
ENDSEC
0
SECTION
2
OBJECTS
0
DICTIONARY
5
C
100
AcDbDictionary
3
ACAD_GROUP
350
D
3
ACAD_MLINESTYLE
350
17
0
DICTIONARY
5
D
100
AcDbDictionary
0
DICTIONARY
5
1A
330
C
100
AcDbDictionary
0
DICTIONARY
5
17
100
AcDbDictionary
0
ENDSEC
0
EOF
