  0
SECTION
  2
HEADER
  9
$ACADVER
  1
AC1024
  9
$ACADMAINTVER
 70
     6
  9
$DWGCODEPAGE
  3
UNDEFINED
  9
$INSBASE
 10
0.0
 20
0.0
 30
0.0
  9
$EXTMIN
 10
1.000000000000000E+20
 20
1.000000000000000E+20
 30
1.000000000000000E+20
  9
$EXTMAX
 10
-1.000000000000000E+20
 20
-1.000000000000000E+20
 30
-1.000000000000000E+20
  9
$LIMMIN
 10
0.0
 20
0.0
  9
$LIMMAX
 10
12.0
 20
9.0
  9
$ORTHOMODE
 70
     0
  9
$REGENMODE
 70
     1
  9
$FILLMODE
 70
     1
  9
$QTEXTMODE
 70
     0
  9
$MIRRTEXT
 70
     1
  9
$LTSCALE
 40
1.0
  9
$ATTMODE
 70
     1
  9
$TEXTSIZE
 40
0.2
  9
$TRACEWID
 40
0.05
  9
$TEXTSTYLE
  7
Standard
  9
$CLAYER
  8
0
  9
$CELTYPE
  6
ByLayer
  9
$CECOLOR
 62
   256
  9
$CELTSCALE
 40
1.0
  9
$DISPSILH
 70
     0
  9
$DIMSCALE
 40
1.0
  9
$DIMASZ
 40
0.18
  9
$DIMEXO
 40
0.0625
  9
$DIMDLI
 40
0.38
  9
$DIMRND
 40
0.0
  9
$DIMDLE
 40
0.0
  9
$DIMEXE
 40
0.18
  9
$DIMTP
 40
0.0
  9
$DIMTM
 40
0.0
  9
$DIMTXT
 40
0.18
  9
$DIMCEN
 40
0.09
  9
$DIMTSZ
 40
0.0
  9
$DIMTOL
 70
     0
  9
$DIMLIM
 70
     0
  9
$DIMTIH
 70
     1
  9
$DIMTOH
 70
     1
  9
$DIMSE1
 70
     0
  9
$DIMSE2
 70
     0
  9
$DIMTAD
 70
     0
  9
$DIMZIN
 70
     0
  9
$DIMBLK
  1

  9
$DIMASO
 70
     1
  9
$DIMSHO
 70
     1
  9
$DIMPOST
  1

  9
$DIMAPOST
  1

  9
$DIMALT
 70
     0
  9
$DIMALTD
 70
     2
  9
$DIMALTF
 40
25.4
  9
$DIMLFAC
 40
1.0
  9
$DIMTOFL
 70
     0
  9
$DIMTVP
 40
0.0
  9
$DIMTIX
 70
     0
  9
$DIMSOXD
 70
     0
  9
$DIMSAH
 70
     0
  9
$DIMBLK1
  1

  9
$DIMBLK2
  1

  9
$DIMSTYLE
  2
Standard
  9
$DIMCLRD
 70
     0
  9
$DIMCLRE
 70
     0
  9
$DIMCLRT
 70
     0
  9
$DIMTFAC
 40
1.0
  9
$DIMGAP
 40
0.09
  9
$DIMJUST
 70
     0
  9
$DIMSD1
 70
     0
  9
$DIMSD2
 70
     0
  9
$DIMTOLJ
 70
     1
  9
$DIMTZIN
 70
     0
  9
$DIMALTZ
 70
     0
  9
$DIMALTTZ
 70
     0
  9
$DIMUPT
 70
     0
  9
$DIMDEC
 70
     4
  9
$DIMTDEC
 70
     4
  9
$DIMALTU
 70
     2
  9
$DIMALTTD
 70
     2
  9
$DIMTXSTY
  7
Standard
  9
$DIMAUNIT
 70
     0
  9
$DIMADEC
 70
     0
  9
$DIMALTRND
 40
0.0
  9
$DIMAZIN
 70
     0
  9
$DIMDSEP
 70
    46
  9
$DIMATFIT
 70
     3
  9
$DIMFRAC
 70
     0
  9
$DIMLDRBLK
  1

  9
$DIMLUNIT
 70
     2
  9
$DIMLWD
 70
    -2
  9
$DIMLWE
 70
    -2
  9
$DIMTMOVE
 70
     0
  9
$DIMFXL
 40
1.0
  9
$DIMFXLON
 70
     0
  9
$DIMJOGANG
 40
0.7853981633974483
  9
$DIMTFILL
 70
     0
  9
$DIMTFILLCLR
 70
     0
  9
$DIMARCSYM
 70
     0
  9
$DIMLTYPE
  6

  9
$DIMLTEX1
  6

  9
$DIMLTEX2
  6

  9
$DIMTXTDIRECTION
 70
     0
  9
$LUNITS
 70
     2
  9
$LUPREC
 70
     4
  9
$SKETCHINC
 40
0.1
  9
$FILLETRAD
 40
0.5
  9
$AUNITS
 70
     0
  9
$AUPREC
 70
     0
  9
$MENU
  1
.
  9
$ELEVATION
 40
0.0
  9
$PELEVATION
 40
0.0
  9
$THICKNESS
 40
0.0
  9
$LIMCHECK
 70
     0
  9
$CHAMFERA
 40
0.5
  9
$CHAMFERB
 40
0.5
  9
$CHAMFERC
 40
1.0
  9
$CHAMFERD
 40
0.0
  9
$SKPOLY
 70
     0
  9
$TDCREATE
 40
2458776.721840278
  9
$TDUCREATE
 40
2458776.930173611
  9
$TDUPDATE
 40
2458776.721840278
  9
$TDUUPDATE
 40
2458776.930173611
  9
$TDINDWG
 40
0.0000000116
  9
$TDUSRTIMER
 40
0.0000000116
  9
$USRTIMER
 70
     1
  9
$ANGBASE
 50
0.0
  9
$ANGDIR
 70
     0
  9
$PDMODE
 70
     0
  9
$PDSIZE
 40
0.0
  9
$PLINEWID
 40
0.0
  9
$SPLFRAME
 70
     0
  9
$SPLINETYPE
 70
     6
  9
$SPLINESEGS
 70
     8
  9
$HANDSEED
  5
4B
  9
$SURFTAB1
 70
     6
  9
$SURFTAB2
 70
     6
  9
$SURFTYPE
 70
     6
  9
$SURFU
 70
     6
  9
$SURFV
 70
     6
  9
$UCSBASE
  2

  9
$UCSNAME
  2

  9
$UCSORG
 10
0.0
 20
0.0
 30
0.0
  9
$UCSXDIR
 10
1.0
 20
0.0
 30
0.0
  9
$UCSYDIR
 10
0.0
 20
1.0
 30
0.0
  9
$UCSORTHOREF
  2

  9
$UCSORTHOVIEW
 70
     0
  9
$UCSORGTOP
 10
0.0
 20
0.0
 30
0.0
  9
$UCSORGBOTTOM
 10
0.0
 20
0.0
 30
0.0
  9
$UCSORGLEFT
 10
0.0
 20
0.0
 30
0.0
  9
$UCSORGRIGHT
 10
0.0
 20
0.0
 30
0.0
  9
$UCSORGFRONT
 10
0.0
 20
0.0
 30
0.0
  9
$UCSORGBACK
 10
0.0
 20
0.0
 30
0.0
  9
$PUCSBASE
  2

  9
$PUCSNAME
  2

  9
$PUCSORG
 10
0.0
 20
0.0
 30
0.0
  9
$PUCSXDIR
 10
1.0
 20
0.0
 30
0.0
  9
$PUCSYDIR
 10
0.0
 20
1.0
 30
0.0
  9
$PUCSORTHOREF
  2

  9
$PUCSORTHOVIEW
 70
     0
  9
$PUCSORGTOP
 10
0.0
 20
0.0
 30
0.0
  9
$PUCSORGBOTTOM
 10
0.0
 20
0.0
 30
0.0
  9
$PUCSORGLEFT
 10
0.0
 20
0.0
 30
0.0
  9
$PUCSORGRIGHT
 10
0.0
 20
0.0
 30
0.0
  9
$PUCSORGFRONT
 10
0.0
 20
0.0
 30
0.0
  9
$PUCSORGBACK
 10
0.0
 20
0.0
 30
0.0
  9
$USERI1
 70
     0
  9
$USERI2
 70
     0
  9
$USERI3
 70
     0
  9
$USERI4
 70
     0
  9
$USERI5
 70
     0
  9
$USERR1
 40
0.0
  9
$USERR2
 40
0.0
  9
$USERR3
 40
0.0
  9
$USERR4
 40
0.0
  9
$USERR5
 40
0.0
  9
$WORLDVIEW
 70
     1
  9
$SHADEDGE
 70
     3
  9
$SHADEDIF
 70
    70
  9
$TILEMODE
 70
     1
  9
$MAXACTVP
 70
    64
  9
$PINSBASE
 10
0.0
 20
0.0
 30
0.0
  9
$PLIMCHECK
 70
     0
  9
$PEXTMIN
 10
1.000000000000000E+20
 20
1.000000000000000E+20
 30
1.000000000000000E+20
  9
$PEXTMAX
 10
-1.000000000000000E+20
 20
-1.000000000000000E+20
 30
-1.000000000000000E+20
  9
$PLIMMIN
 10
0.0
 20
0.0
  9
$PLIMMAX
 10
12.0
 20
9.0
  9
$UNITMODE
 70
     0
  9
$VISRETAIN
 70
     1
  9
$PLINEGEN
 70
     0
  9
$PSLTSCALE
 70
     1
  9
$TREEDEPTH
 70
  3020
  9
$CMLSTYLE
  2
Standard
  9
$CMLJUST
 70
     0
  9
$CMLSCALE
 40
1.0
  9
$PROXYGRAPHICS
 70
     1
  9
$MEASUREMENT
 70
     0
  9
$CELWEIGHT
370
    -1
  9
$ENDCAPS
280
     0
  9
$JOINSTYLE
280
     0
  9
$LWDISPLAY
290
     1
  9
$INSUNITS
 70
     1
  9
$HYPERLINKBASE
  1

  9
$STYLESHEET
  1

  9
$XEDIT
290
     1
  9
$CEPSNTYPE
380
     0
  9
$PSTYLEMODE
290
     1
  9
$FINGERPRINTGUID
  2
{943B94BA-396A-4D8F-A194-AF2F1920A667}
  9
$VERSIONGUID
  2
{FAEB1C32-E019-11D5-929B-00C0DF256EC4}
  9
$EXTNAMES
290
     1
  9
$PSVPSCALE
 40
0.0
  9
$OLESTARTUP
290
     0
  9
$SORTENTS
280
   127
  9
$INDEXCTL
280
     0
  9
$HIDETEXT
280
     1
  9
$XCLIPFRAME
280
     2
  9
$HALOGAP
280
     0
  9
$OBSCOLOR
 70
   257
  9
$OBSLTYPE
280
     0
  9
$INTERSECTIONDISPLAY
280
     0
  9
$INTERSECTIONCOLOR
 70
   257
  9
$DIMASSOC
280
     2
  9
$PROJECTNAME
  1

  9
$CAMERADISPLAY
290
     0
  9
$LENSLENGTH
 40
50.0
  9
$CAMERAHEIGHT
 40
0.0
  9
$STEPSPERSEC
 40
2.0
  9
$STEPSIZE
 40
6.0
  9
$3DDWFPREC
 40
2.0
  9
$PSOLWIDTH
 40
0.25
  9
$PSOLHEIGHT
 40
4.0
  9
$LOFTANG1
 40
1.570796326794897
  9
$LOFTANG2
 40
1.570796326794897
  9
$LOFTMAG1
 40
0.0
  9
$LOFTMAG2
 40
0.0
  9
$LOFTPARAM
 70
     7
  9
$LOFTNORMALS
280
     1
  9
$LATITUDE
 40
37.795
  9
$LONGITUDE
 40
-122.394
  9
$NORTHDIRECTION
 40
0.0
  9
$TIMEZONE
 70
 -8000
  9
$LIGHTGLYPHDISPLAY
280
     1
  9
$TILEMODELIGHTSYNCH
280
     1
  9
$CMATERIAL
347
3C
  9
$SOLIDHIST
280
     1
  9
$SHOWHIST
280
     1
  9
$DWFFRAME
280
     2
  9
$DGNFRAME
280
     2
  9
$REALWORLDSCALE
290
     1
  9
$INTERFERECOLOR
 62
   256
  9
$CSHADOW
280
     0
  9
$SHADOWPLANELOCATION
 40
0.0
  0
ENDSEC
  0
SECTION
  2
CLASSES
  0
CLASS
  1
ACDBDICTIONARYWDFLT
  2
AcDbDictionaryWithDefault
  3
ObjectDBX Classes
 90
        0
 91
        4
280
     0
281
     0
  0
CLASS
  1
VISUALSTYLE
  2
AcDbVisualStyle
  3
ObjectDBX Classes
 90
     4095
 91
        4
280
     0
281
     0
  0
CLASS
  1
MATERIAL
  2
AcDbMaterial
  3
ObjectDBX Classes
 90
     1153
 91
        4
280
     0
281
     0
  0
CLASS
  1
SUN
  2
AcDbSun
  3
SCENEOE
 90
     1024
 91
        4
280
     0
281
     0
  0
ENDSEC
  0
SECTION
  2
TABLES
  0
TABLE
  2
VPORT
  5
8
330
0
100
AcDbSymbolTable
 70
     1
  0
VPORT
  5
29
330
8
100
AcDbSymbolTableRecord
100
AcDbViewportTableRecord
  2
*Active
 70
     0
 10
0.0
 20
0.0
 11
1.0
 21
1.0
 12
0.0
 22
0.0
 13
0.0
 23
0.0
 14
0.5
 24
0.5
 15
0.5
 25
0.5
 16
0.0
 26
0.0
 36
1.0
 17
6.0
 27
-6.0
 37
0.0
 40
12.0
 41
1.0
 42
50.0
 43
0.0
 44
0.0
 50
0.0
 51
0.0
 71
     0
 72
   100
 73
     1
 74
     3
 75
     0
 76
     0
 77
     0
 78
     0
281
     0
 65
     1
110
0.0
120
0.0
130
0.0
111
1.0
121
0.0
131
0.0
112
0.0
122
1.0
132
0.0
 79
     0
146
0.0
 60
     3
 61
     5
292
     1
282
     1
141
0.0
142
0.0
 63
   250
361
3F
  0
ENDTAB
  0
TABLE
  2
LTYPE
  5
5
330
0
100
AcDbSymbolTable
 70
     1
  0
LTYPE
  5
14
330
5
100
AcDbSymbolTableRecord
100
AcDbLinetypeTableRecord
  2
ByBlock
 70
     0
  3

 72
    65
 73
     0
 40
0.0
  0
LTYPE
  5
15
330
5
100
AcDbSymbolTableRecord
100
AcDbLinetypeTableRecord
  2
ByLayer
 70
     0
  3

 72
    65
 73
     0
 40
0.0
  0
LTYPE
  5
16
330
5
100
AcDbSymbolTableRecord
100
AcDbLinetypeTableRecord
  2
Continuous
 70
     0
  3
Solid line
 72
    65
 73
     0
 40
0.0
  0
ENDTAB
  0
TABLE
  2
LAYER
  5
2
330
0
100
AcDbSymbolTable
 70
     2
  0
LAYER
  5
10
330
2
100
AcDbSymbolTableRecord
100
AcDbLayerTableRecord
  2
0
 70
     0
 62
     7
  6
Continuous
370
    -3
390
F
347
3E
  0
LAYER
  5
40
330
2
100
AcDbSymbolTableRecord
100
AcDbLayerTableRecord
  2
Layer 1
 70
     0
 62
     7
  6
Continuous
370
    -3
390
F
347
3E
  0
ENDTAB
  0
TABLE
  2
STYLE
  5
3
330
0
100
AcDbSymbolTable
 70
     1
  0
STYLE
  5
11
330
3
100
AcDbSymbolTableRecord
100
AcDbTextStyleTableRecord
  2
Standard
 70
     0
 40
0.0
 41
1.0
 50
0.0
 71
     0
 42
0.2
  3
txt
  4

  0
ENDTAB
  0
TABLE
  2
VIEW
  5
6
330
0
100
AcDbSymbolTable
 70
     0
  0
ENDTAB
  0
TABLE
  2
UCS
  5
7
330
0
100
AcDbSymbolTable
 70
     0
  0
ENDTAB
  0
TABLE
  2
APPID
  5
9
330
0
100
AcDbSymbolTable
 70
     1
  0
APPID
  5
12
330
9
100
AcDbSymbolTableRecord
100
AcDbRegAppTableRecord
  2
ACAD
 70
     0
  0
ENDTAB
  0
TABLE
  2
DIMSTYLE
  5
A
330
0
100
AcDbSymbolTable
 70
     1
100
AcDbDimStyleTable
  0
DIMSTYLE
105
27
330
A
100
AcDbSymbolTableRecord
100
AcDbDimStyleTableRecord
  2
Standard
 70
     0
178
     0
340
11
  0
ENDTAB
  0
TABLE
  2
BLOCK_RECORD
  5
1
330
0
100
AcDbSymbolTable
 70
     1
  0
BLOCK_RECORD
  5
1F
330
1
100
AcDbSymbolTableRecord
100
AcDbBlockTableRecord
  2
*Model_Space
340
22
 70
     0
280
     1
281
     0
  0
BLOCK_RECORD
  5
1B
330
1
100
AcDbSymbolTableRecord
100
AcDbBlockTableRecord
  2
*Paper_Space
340
1E
 70
     0
280
     1
281
     0
  0
BLOCK_RECORD
  5
23
330
1
100
AcDbSymbolTableRecord
100
AcDbBlockTableRecord
  2
*Paper_Space0
340
26
 70
     0
280
     1
281
     0
  0
ENDTAB
  0
ENDSEC
  0
SECTION
  2
BLOCKS
  0
BLOCK
  5
20
330
1F
100
AcDbEntity
  8
0
100
AcDbBlockBegin
  2
*Model_Space
 70
     0
 10
0.0
 20
0.0
 30
0.0
  3
*Model_Space
  1

  0
ENDBLK
  5
21
330
1F
100
AcDbEntity
  8
0
100
AcDbBlockEnd
  0
BLOCK
  5
1C
330
1B
100
AcDbEntity
 67
     1
  8
0
100
AcDbBlockBegin
  2
*Paper_Space
 70
     0
 10
0.0
 20
0.0
 30
0.0
  3
*Paper_Space
  1

  0
ENDBLK
  5
1D
330
1B
100
AcDbEntity
 67
     1
  8
0
100
AcDbBlockEnd
  0
BLOCK
  5
24
330
23
100
AcDbEntity
  8
0
100
AcDbBlockBegin
  2
*Paper_Space0
 70
     0
 10
0.0
 20
0.0
 30
0.0
  3
*Paper_Space0
  1

  0
ENDBLK
  5
25
330
23
100
AcDbEntity
  8
0
100
AcDbBlockEnd
  0
ENDSEC
  0
SECTION
  2
ENTITIES
  0
SPLINE
  5
41
330
1F
100
AcDbEntity
  8
Layer 1
370
     0
100
AcDbSpline
210
0.0
220
0.0
230
1.0
 70
    11
 71
     3
 72
    59
 73
    55
 74
     0
 42
0.0000000001
 43
0.0000000001
 12
1.0
 22
0.0
 32
0.0
 13
1.0
 23
0.0
 33
0.0
 40
0.0
 40
0.0
 40
0.0
 40
0.0
 40
1.0
 40
1.0
 40
1.0
 40
2.0
 40
2.0
 40
2.0
 40
3.0
 40
3.0
 40
3.0
 40
4.0
 40
4.0
 40
4.0
 40
5.0
 40
5.0
 40
5.0
 40
6.0
 40
6.0
 40
6.0
 40
7.0
 40
7.0
 40
7.0
 40
8.0
 40
8.0
 40
8.0
 40
9.0
 40
9.0
 40
9.0
 40
10.0
 40
10.0
 40
10.0
 40
11.0
 40
11.0
 40
11.0
 40
12.0
 40
12.0
 40
12.0
 40
13.0
 40
13.0
 40
13.0
 40
14.0
 40
14.0
 40
14.0
 40
15.0
 40
15.0
 40
15.0
 40
16.0
 40
16.0
 40
16.0
 40
17.0
 40
17.0
 40
17.0
 40
18.0
 40
18.0
 40
18.0
 40
18.0
 10
4.810277045564868
 20
-3.816147142377581
 30
0.0
 10
4.785277215106968
 20
-3.503647142377581
 30
0.0
 10
4.715832770662524
 20
-3.174480306168814
 30
0.0
 10
4.601943712231534
 20
-2.88142508969746
 30
0.0
 10
4.59361029412715
 20
-2.859202782704187
 30
0.0
 10
4.583888326218079
 20
-2.835591925906227
 30
0.0
 10
4.565832516349372
 20
-2.81892508969746
 30
0.0
 10
4.542221235696161
 20
-2.795313809044248
 30
0.0
 10
4.508887987133877
 20
-2.788369364599804
 30
0.0
 10
4.476943712231534
 20
-2.781424920155359
 30
0.0
 10
4.368610548440301
 20
-2.757813639502147
 30
0.0
 10
4.258887987133877
 20
-2.742536200808571
 30
0.0
 10
4.147776876022767
 20
-2.731424835384309
 30
0.0
 10
3.921388156675978
 20
-2.706425004926409
 30
0.0
 10
3.693610039813999
 20
-2.693924665842208
 30
0.0
 10
3.464443373147333
 20
-2.686980221397764
 30
0.0
 10
3.110276706480666
 20
-2.675869279828753
 30
0.0
 10
2.75472106615406
 20
-2.681424750613258
 30
0.0
 10
2.400554399487393
 20
-2.682813724273198
 30
0.0
 10
2.044998759160788
 20
-2.684202697933137
 30
0.0
 10
1.690832092494121
 20
-2.711980475710915
 30
0.0
 10
1.338054399487393
 20
-2.764758083946592
 30
0.0
 10
1.275554399487393
 20
-2.774480475710915
 30
0.0
 10
1.196387775206252
 20
-2.786980390939864
 30
0.0
 10
1.157498843931838
 20
-2.845313469960047
 30
0.0
 10
1.108887732820727
 20
-2.920313385188996
 30
0.0
 10
1.089443373147333
 20
-3.036979967084612
 30
0.0
 10
1.064443330761808
 20
-3.123091247737825
 30
0.0
 10
0.9963877540134893
 20
-3.360591332508875
 30
0.0
 10
0.9338877540134893
 20
-3.617535776953319
 30
0.0
 10
0.9352766217096157
 20
-3.86614680329338
 30
0.0
 10
0.9352766217096157
 20
-3.942535692182269
 30
0.0
 10
0.9936099126574238
 20
-3.968924496300108
 30
0.0
 10
1.061665595369555
 20
-3.981424411529057
 30
0.0
 10
1.303332177265171
 20
-4.028646548980229
 30
0.0
 10
1.55472115092511
 20
-4.068924241986957
 30
0.0
 10
1.800554441872919
 20
-4.071702189306835
 30
0.0
 10
2.033887817591777
 20
-4.073091162966774
 30
0.0
 10
2.265832219650696
 20
-4.074480136626713
 30
0.0
 10
2.499165595369555
 20
-4.0758686864314
 30
0.0
 10
2.80611012458505
 20
-4.07725766009134
 30
0.0
 10
3.113054653800544
 20
-4.080035183555967
 30
0.0
 10
3.421387732820727
 20
-4.081424157215906
 30
0.0
 10
3.664443288376282
 20
-4.082813130875845
 30
0.0
 10
3.908887817591777
 20
-4.078646209896028
 30
0.0
 10
4.150554399487393
 20
-4.057812876562695
 30
0.0
 10
4.272776452167514
 20
-4.048090484798371
 30
0.0
 10
4.394998928702888
 20
-4.032813046104795
 30
0.0
 10
4.51722098138301
 20
-4.013368262576149
 30
0.0
 10
4.589443373147333
 20
-4.0008683473472
 30
0.0
 10
4.738054229945292
 20
-3.998090400027321
 30
0.0
 10
4.788054314716343
 20
-3.934201426367382
 30
0.0
 10
4.814443966544685
 20
-3.900869449370854
 30
0.0
 10
4.813054992884745
 20
-3.856425259239561
 30
0.0
 10
4.810277045564868
 20
-3.816147142377581
 30
0.0
  0
SPLINE
  5
42
330
1F
100
AcDbEntity
  8
Layer 1
370
     0
100
AcDbSpline
210
0.0
220
0.0
230
1.0
 70
    11
 71
     3
 72
    44
 73
    40
 74
     0
 42
0.0000000001
 43
0.0000000001
 12
1.0
 22
0.0
 32
0.0
 13
1.0
 23
0.0
 33
0.0
 40
0.0
 40
0.0
 40
0.0
 40
0.0
 40
1.0
 40
1.0
 40
1.0
 40
2.0
 40
2.0
 40
2.0
 40
3.0
 40
3.0
 40
3.0
 40
4.0
 40
4.0
 40
4.0
 40
5.0
 40
5.0
 40
5.0
 40
6.0
 40
6.0
 40
6.0
 40
7.0
 40
7.0
 40
7.0
 40
8.0
 40
8.0
 40
8.0
 40
9.0
 40
9.0
 40
9.0
 40
10.0
 40
10.0
 40
10.0
 40
11.0
 40
11.0
 40
11.0
 40
12.0
 40
12.0
 40
12.0
 40
13.0
 40
13.0
 40
13.0
 40
13.0
 10
1.947777172721443
 20
-3.275869449370854
 30
0.0
 10
1.942221701936938
 20
-3.292536285579621
 30
0.0
 10
1.936666019224807
 20
-3.309202697933137
 30
0.0
 10
1.932499310172615
 20
-3.325869534141904
 30
0.0
 10
1.921388156675979
 20
-3.360591756364126
 30
0.0
 10
1.910277003179342
 20
-3.396702952246288
 30
0.0
 10
1.900554823342645
 20
-3.43281414812845
 30
0.0
 10
1.89499935255814
 20
-3.449480984337217
 30
0.0
 10
1.890832643505948
 20
-3.466147396690733
 30
0.0
 10
1.885276960793817
 20
-3.4828142328995
 30
0.0
 10
1.885276960793817
 20
-3.4828142328995
 30
0.0
 10
1.871388071904928
 20
-3.4828142328995
 30
0.0
 10
1.871388071904928
 20
-3.4828142328995
 30
0.0
 10
1.751943542689433
 20
-3.4828142328995
 30
0.0
 10
1.756110251741625
 20
-3.4828142328995
 30
0.0
 10
1.636665934453756
 20
-3.4828142328995
 30
0.0
 10
1.581110378898201
 20
-3.4828142328995
 30
0.0
 10
1.526943797002584
 20
-3.4828142328995
 30
0.0
 10
1.471388241447029
 20
-3.484203206559439
 30
0.0
 10
1.433888283832554
 20
-3.485592180219378
 30
0.0
 10
1.392221617165887
 20
-3.485592180219378
 30
0.0
 10
1.357499394943665
 20
-3.467536370350672
 30
0.0
 10
1.336666061610332
 20
-3.456425428781661
 30
0.0
 10
1.321388199061504
 20
-3.439758592572894
 30
0.0
 10
1.311666019224807
 20
-3.418925259239561
 30
0.0
 10
1.285277215106968
 20
-3.360591756364126
 30
0.0
 10
1.313054992884746
 20
-3.300869703684005
 30
0.0
 10
1.367221574780362
 20
-3.273091925906227
 30
0.0
 10
1.419999394943665
 20
-3.246703121788389
 30
0.0
 10
1.481110421283726
 20
-3.253647566232833
 30
0.0
 10
1.538054950499221
 20
-3.253647566232833
 30
0.0
 10
1.538054950499221
 20
-3.253647566232833
 30
0.0
 10
1.731110421283726
 20
-3.253647566232833
 30
0.0
 10
1.731110421283726
 20
-3.253647566232833
 30
0.0
 10
1.731110421283726
 20
-3.253647566232833
 30
0.0
 10
1.954721617165887
 20
-3.253647566232833
 30
0.0
 10
1.954721617165887
 20
-3.253647566232833
 30
0.0
 10
1.954721617165887
 20
-3.252258592572894
 30
0.0
 10
1.949166146381382
 20
-3.274480475710915
 30
0.0
 10
1.947777172721443
 20
-3.275869449370854
 30
0.0
  0
SPLINE
  5
43
330
1F
100
AcDbEntity
  8
Layer 1
370
     0
100
AcDbSpline
210
0.0
220
0.0
230
1.0
 70
    11
 71
     3
 72
    38
 73
    34
 74
     0
 42
0.0000000001
 43
0.0000000001
 12
1.0
 22
0.0
 32
0.0
 13
1.0
 23
0.0
 33
0.0
 40
0.0
 40
0.0
 40
0.0
 40
0.0
 40
1.0
 40
1.0
 40
1.0
 40
2.0
 40
2.0
 40
2.0
 40
3.0
 40
3.0
 40
3.0
 40
4.0
 40
4.0
 40
4.0
 40
5.0
 40
5.0
 40
5.0
 40
6.0
 40
6.0
 40
6.0
 40
7.0
 40
7.0
 40
7.0
 40
8.0
 40
8.0
 40
8.0
 40
9.0
 40
9.0
 40
9.0
 40
10.0
 40
10.0
 40
10.0
 40
11.0
 40
11.0
 40
11.0
 40
11.0
 10
4.436666019224806
 20
-3.414758338259743
 30
0.0
 10
4.426943627460483
 20
-3.435591671593076
 30
0.0
 10
4.410277215106968
 20
-3.452258507801844
 30
0.0
 10
4.389443881773635
 20
-3.463369449370854
 30
0.0
 10
4.354721659551412
 20
-3.481424835384309
 30
0.0
 10
4.311666019224806
 20
-3.481424835384309
 30
0.0
 10
4.272777299878018
 20
-3.480036285579621
 30
0.0
 10
4.215832770662524
 20
-3.478647311919682
 30
0.0
 10
4.160277215106968
 20
-3.478647311919682
 30
0.0
 10
4.103332685891473
 20
-3.478647311919682
 30
0.0
 10
3.981110633211352
 20
-3.478647311919682
 30
0.0
 10
3.857499183016039
 20
-3.478647311919682
 30
0.0
 10
3.735277130335918
 20
-3.478647311919682
 30
0.0
 10
3.735277130335918
 20
-3.478647311919682
 30
0.0
 10
3.726943712231534
 20
-3.478647311919682
 30
0.0
 10
3.726943712231534
 20
-3.478647311919682
 30
0.0
 10
3.710276876022767
 20
-3.430036200808571
 30
0.0
 10
3.69499943732919
 20
-3.375869618912954
 30
0.0
 10
3.682499098244989
 20
-3.327258507801844
 30
0.0
 10
3.682499098244989
 20
-3.325869534141904
 30
0.0
 10
3.658887817591777
 20
-3.249480645253016
 30
0.0
 10
3.658887817591777
 20
-3.249480645253016
 30
0.0
 10
3.658887817591777
 20
-3.249480645253016
 30
0.0
 10
4.006110039813999
 20
-3.249480645253016
 30
0.0
 10
4.006110039813999
 20
-3.249480645253016
 30
0.0
 10
4.006110039813999
 20
-3.249480645253016
 30
0.0
 10
4.20472098138301
 20
-3.249480645253016
 30
0.0
 10
4.20472098138301
 20
-3.249480645253016
 30
0.0
 10
4.263054484258443
 20
-3.249480645253016
 30
0.0
 10
4.326943034063131
 20
-3.242536200808571
 30
0.0
 10
4.381110039813999
 20
-3.268925004926409
 30
0.0
 10
4.435277045564868
 20
-3.296702782704187
 30
0.0
 10
4.464443797002584
 20
-3.356425259239561
 30
0.0
 10
4.436666019224806
 20
-3.414758338259743
 30
0.0
  0
SPLINE
  5
44
330
1F
100
AcDbEntity
  8
Layer 1
370
     0
100
AcDbSpline
210
0.0
220
0.0
230
1.0
 70
    11
 71
     3
 72
    80
 73
    76
 74
     0
 42
0.0000000001
 43
0.0000000001
 12
1.0
 22
0.0
 32
0.0
 13
1.0
 23
0.0
 33
0.0
 40
0.0
 40
0.0
 40
0.0
 40
0.0
 40
1.0
 40
1.0
 40
1.0
 40
2.0
 40
2.0
 40
2.0
 40
3.0
 40
3.0
 40
3.0
 40
4.0
 40
4.0
 40
4.0
 40
5.0
 40
5.0
 40
5.0
 40
6.0
 40
6.0
 40
6.0
 40
7.0
 40
7.0
 40
7.0
 40
8.0
 40
8.0
 40
8.0
 40
9.0
 40
9.0
 40
9.0
 40
10.0
 40
10.0
 40
10.0
 40
11.0
 40
11.0
 40
11.0
 40
12.0
 40
12.0
 40
12.0
 40
13.0
 40
13.0
 40
13.0
 40
14.0
 40
14.0
 40
14.0
 40
15.0
 40
15.0
 40
15.0
 40
16.0
 40
16.0
 40
16.0
 40
17.0
 40
17.0
 40
17.0
 40
18.0
 40
18.0
 40
18.0
 40
19.0
 40
19.0
 40
19.0
 40
20.0
 40
20.0
 40
20.0
 40
21.0
 40
21.0
 40
21.0
 40
22.0
 40
22.0
 40
22.0
 40
23.0
 40
23.0
 40
23.0
 40
24.0
 40
24.0
 40
24.0
 40
25.0
 40
25.0
 40
25.0
 40
25.0
 10
7.522082507409499
 20
-5.588834430333994
 30
0.0
 10
7.426249258847216
 20
-5.461056483014115
 30
0.0
 10
7.329027036624994
 20
-5.331889985889549
 30
0.0
 10
7.226249343618266
 20
-5.208278959549489
 30
0.0
 10
7.13319361852061
 20
-5.095778874778438
 30
0.0
 10
7.035971396298388
 20
-4.995779129091589
 30
0.0
 10
6.937360624271478
 20
-4.908278874778438
 30
0.0
 10
6.888749513160367
 20
-4.865223234451832
 30
0.0
 10
6.845693872833762
 20
-4.831889985889549
 30
0.0
 10
6.799860709042528
 20
-4.811056652556216
 30
0.0
 10
6.76097198969574
 20
-4.793001266542761
 30
0.0
 10
6.719305323029074
 20
-4.784667848438377
 30
0.0
 10
6.67347173538259
 20
-4.784667848438377
 30
0.0
 10
6.616527206167095
 20
-4.784667848438377
 30
0.0
 10
6.552638232507156
 20
-4.798556737327266
 30
0.0
 10
6.487360709042528
 20
-4.827723488764983
 30
0.0
 10
6.120694127146913
 20
-4.983279213862639
 30
0.0
 10
5.834582931264751
 20
-5.234667763667327
 30
0.0
 10
5.531805111101448
 20
-5.499946050071407
 30
0.0
 10
5.390138486820306
 20
-5.62355750026672
 30
0.0
 10
5.248471862539165
 20
-5.745779552946841
 30
0.0
 10
5.101249555545892
 20
-5.863835108502396
 30
0.0
 10
5.090138402049257
 20
-5.872168102751528
 30
0.0
 10
5.087360666657004
 20
-5.755501944711164
 30
0.0
 10
5.087360666657004
 20
-5.744391003142153
 30
0.0
 10
5.088749640316943
 20
-5.641612886280174
 30
0.0
 10
5.101249555545892
 20
-5.538835617128698
 30
0.0
 10
5.113749470774843
 20
-5.43605750026672
 30
0.0
 10
5.156805111101448
 20
-5.084668780919931
 30
0.0
 10
5.223471608226014
 20
-4.719390748829002
 30
0.0
 10
5.322082804108176
 20
-4.284668696148881
 30
0.0
 10
5.376249386003792
 20
-4.04716861137783
 30
0.0
 10
5.431804941559347
 20
-3.841613225364376
 30
0.0
 10
5.490138444434781
 20
-3.655502199024315
 30
0.0
 10
5.617916179827034
 20
-3.251335447586598
 30
0.0
 10
5.756805068715923
 20
-2.894391257455304
 30
0.0
 10
5.916527290938145
 20
-2.566613394906476
 30
0.0
 10
5.9720828464937
 20
-2.452724336475487
 30
0.0
 10
6.030416137441509
 20
-2.338835701899749
 30
0.0
 10
6.091527375709195
 20
-2.230502114253265
 30
0.0
 10
6.163749555545892
 20
-2.101335617128699
 30
0.0
 10
6.227638529205832
 20
-1.995779976802093
 30
0.0
 10
6.292916264598084
 20
-1.89994672823981
 30
0.0
 10
6.292916264598084
 20
-1.89994672823981
 30
0.0
 10
6.324860751428054
 20
-1.852724590788638
 30
0.0
 10
6.324860751428054
 20
-1.852724590788638
 30
0.0
 10
6.335971904924691
 20
-1.836057754579871
 30
0.0
 10
6.360971947310215
 20
-1.834669204775183
 30
0.0
 10
6.373471862539165
 20
-1.849946643468759
 30
0.0
 10
6.373471862539165
 20
-1.849946643468759
 30
0.0
 10
6.424860709042528
 20
-1.912446643468759
 30
0.0
 10
6.424860709042528
 20
-1.912446643468759
 30
0.0
 10
6.565138571591357
 20
-2.08605775457987
 30
0.0
 10
6.679027206167095
 20
-2.288835617128699
 30
0.0
 10
6.783193872833762
 20
-2.48605758503777
 30
0.0
 10
6.88458259218055
 20
-2.676335532357648
 30
0.0
 10
6.97347182015364
 20
-2.87355750026672
 30
0.0
 10
7.051249258847216
 20
-3.074946389155608
 30
0.0
 10
7.155415925513883
 20
-3.340224251704436
 30
0.0
 10
7.241527206167095
 20
-3.613835108502396
 30
0.0
 10
7.317916095055984
 20
-3.888835362815548
 30
0.0
 10
7.431805153486973
 20
-4.301335532357649
 30
0.0
 10
7.524860454729378
 20
-4.740224082162336
 30
0.0
 10
7.605416264598084
 20
-5.230502114253264
 30
0.0
 10
7.631805068715923
 20
-5.388835786670799
 30
0.0
 10
7.654027375709195
 20
-5.548558008893021
 30
0.0
 10
7.677638656362407
 20
-5.706890833600053
 30
0.0
 10
7.679027630022347
 20
-5.719391172684254
 30
0.0
 10
7.683194127146912
 20
-5.736057161182518
 30
0.0
 10
7.672083185577902
 20
-5.744391003142153
 30
0.0
 10
7.660972244008891
 20
-5.754113394906477
 30
0.0
 10
7.644305407800124
 20
-5.751335447586598
 30
0.0
 10
7.63597198969574
 20
-5.740224506017587
 30
0.0
 10
7.598471396298388
 20
-5.690223149680782
 30
0.0
 10
7.559582253096348
 20
-5.638834091249792
 30
0.0
 10
7.522082507409499
 20
-5.588834430333994
 30
0.0
  0
SPLINE
  5
45
330
1F
100
AcDbEntity
  8
Layer 1
370
     0
100
AcDbSpline
210
0.0
220
0.0
230
1.0
 70
    11
 71
     3
 72
    65
 73
    61
 74
     0
 42
0.0000000001
 43
0.0000000001
 12
1.0
 22
0.0
 32
0.0
 13
1.0
 23
0.0
 33
0.0
 40
0.0
 40
0.0
 40
0.0
 40
0.0
 40
1.0
 40
1.0
 40
1.0
 40
2.0
 40
2.0
 40
2.0
 40
3.0
 40
3.0
 40
3.0
 40
4.0
 40
4.0
 40
4.0
 40
5.0
 40
5.0
 40
5.0
 40
6.0
 40
6.0
 40
6.0
 40
7.0
 40
7.0
 40
7.0
 40
8.0
 40
8.0
 40
8.0
 40
9.0
 40
9.0
 40
9.0
 40
10.0
 40
10.0
 40
10.0
 40
11.0
 40
11.0
 40
11.0
 40
12.0
 40
12.0
 40
12.0
 40
13.0
 40
13.0
 40
13.0
 40
14.0
 40
14.0
 40
14.0
 40
15.0
 40
15.0
 40
15.0
 40
16.0
 40
16.0
 40
16.0
 40
17.0
 40
17.0
 40
17.0
 40
18.0
 40
18.0
 40
18.0
 40
19.0
 40
19.0
 40
19.0
 40
20.0
 40
20.0
 40
20.0
 40
20.0
 10
9.76229178235058
 20
-1.960116746091659
 30
0.0
 10
9.76229178235058
 20
-1.960116746091659
 30
0.0
 10
9.777569644899408
 20
-1.978172132105113
 30
0.0
 10
9.777569644899408
 20
-1.978172132105113
 30
0.0
 10
9.840069644899408
 20
-2.055949994653941
 30
0.0
 10
9.894236226795025
 20
-2.14483879877178
 30
0.0
 10
9.948402808690641
 20
-2.228172132105113
 30
0.0
 10
10.28034716836403
 20
-2.751783412758325
 30
0.0
 10
10.49423597248187
 20
-3.33233879877178
 30
0.0
 10
10.65812511568391
 20
-3.926783073674124
 30
0.0
 10
10.77895861855935
 20
-4.365672047334063
 30
0.0
 10
10.87062494614181
 20
-4.811505465438446
 30
0.0
 10
10.94423631156607
 20
-5.261505380667396
 30
0.0
 10
10.96090314777484
 20
-5.362894523869437
 30
0.0
 10
10.97479203666373
 20
-5.464283243216224
 30
0.0
 10
10.99006947535731
 20
-5.565671962563012
 30
0.0
 10
10.97479161280848
 20
-5.544838629229679
 30
0.0
 10
10.95951375025965
 20
-5.525393845701033
 30
0.0
 10
10.94423631156607
 20
-5.5045605123677
 30
0.0
 10
10.86229195189268
 20
-5.396227348576468
 30
0.0
 10
10.78034759221929
 20
-5.287893760929983
 30
0.0
 10
10.69284733790614
 20
-5.182338120603377
 30
0.0
 10
10.60118058646842
 20
-5.072615983152205
 30
0.0
 10
10.50256939058626
 20
-4.968449316485539
 30
0.0
 10
10.39562520045496
 20
-4.874004617727943
 30
0.0
 10
10.34840306300379
 20
-4.832337951061277
 30
0.0
 10
10.29840297823274
 20
-4.79067128439461
 30
0.0
 10
10.24006947535731
 20
-4.765671453936711
 30
0.0
 10
10.11784742267719
 20
-4.711504872041094
 30
0.0
 10
9.98729152803743
 20
-4.730949231714488
 30
0.0
 10
9.869235972481874
 20
-4.780949316485539
 30
0.0
 10
9.36645823708962
 20
-4.993449146943438
 30
0.0
 10
9.006735887710823
 20
-5.386504956812145
 30
0.0
 10
8.592847168364035
 20
-5.724004787270044
 30
0.0
 10
8.592847168364035
 20
-5.724004787270044
 30
0.0
 10
8.569236099638449
 20
-5.743449570798689
 30
0.0
 10
8.569236099638449
 20
-5.743449570798689
 30
0.0
 10
8.573402808690641
 20
-5.740671623478812
 30
0.0
 10
8.572013835030702
 20
-5.700394354327336
 30
0.0
 10
8.572013835030702
 20
-5.694838459687579
 30
0.0
 10
8.574791570422954
 20
-5.669838629229679
 30
0.0
 10
8.576180544082893
 20
-5.643449401256589
 30
0.0
 10
8.578958279475147
 20
-5.618449570798689
 30
0.0
 10
8.584513750259651
 20
-5.5670605123677
 30
0.0
 10
8.590069432971783
 20
-5.515671453936711
 30
0.0
 10
8.595624903756288
 20
-5.464283243216224
 30
0.0
 10
8.64284704120746
 20
-5.078172301647214
 30
0.0
 10
8.716458194704096
 20
-4.697616407007457
 30
0.0
 10
8.802569263429682
 20
-4.319838883542831
 30
0.0
 10
8.849791400880854
 20
-4.110116576549558
 30
0.0
 10
8.903958194704096
 20
-3.901783243216224
 30
0.0
 10
8.969235930096348
 20
-3.69622785720277
 30
0.0
 10
9.085902511991964
 20
-3.326783327987275
 30
0.0
 10
9.22340263914854
 20
-2.964283243216224
 30
0.0
 10
9.39145806754752
 20
-2.617061020994002
 30
0.0
 10
9.445624649443136
 20
-2.504560936222952
 30
0.0
 10
9.503958152318571
 20
-2.39483879877178
 30
0.0
 10
9.565069178658632
 20
-2.285116661320608
 30
0.0
 10
9.62618084078157
 20
-2.174005550209497
 30
0.0
 10
9.691458576173822
 20
-2.064283412758325
 30
0.0
 10
9.76229178235058
 20
-1.960116746091659
 30
0.0
  0
SPLINE
  5
46
330
1F
100
AcDbEntity
  8
Layer 1
370
     0
100
AcDbSpline
210
0.0
220
0.0
230
1.0
 70
    11
 71
     3
 72
    17
 73
    13
 74
     0
 42
0.0000000001
 43
0.0000000001
 12
1.0
 22
0.0
 32
0.0
 13
1.0
 23
0.0
 33
0.0
 40
0.0
 40
0.0
 40
0.0
 40
0.0
 40
1.0
 40
1.0
 40
1.0
 40
2.0
 40
2.0
 40
2.0
 40
3.0
 40
3.0
 40
3.0
 40
4.0
 40
4.0
 40
4.0
 40
4.0
 10
4.498822506667592
 20
-8.9231947242452
 30
0.0
 10
4.498822506667592
 20
-9.606528227120634
 30
0.0
 10
3.625211056472279
 20
-10.160694385161
 30
0.0
 10
2.547433617778703
 20
-10.160694385161
 30
0.0
 10
1.469656179085127
 20
-10.160694385161
 30
0.0
 10
0.5960443050345626
 20
-9.606528227120634
 30
0.0
 10
0.5960443050345626
 20
-8.9231947242452
 30
0.0
 10
0.5960443050345626
 20
-8.239861221369766
 30
0.0
 10
1.469655331374623
 20
-7.68569463947415
 30
0.0
 10
2.547433617778703
 20
-7.68569463947415
 30
0.0
 10
3.625211904182783
 20
-7.68569463947415
 30
0.0
 10
4.498822506667592
 20
-8.239861221369766
 30
0.0
 10
4.498822506667592
 20
-8.9231947242452
 30
0.0
  0
SPLINE
  5
47
330
1F
100
AcDbEntity
  8
Layer 1
370
     0
100
AcDbSpline
210
0.0
220
0.0
230
1.0
 70
    11
 71
     3
 72
    17
 73
    13
 74
     0
 42
0.0000000001
 43
0.0000000001
 12
1.0
 22
0.0
 32
0.0
 13
1.0
 23
0.0
 33
0.0
 40
0.0
 40
0.0
 40
0.0
 40
0.0
 40
1.0
 40
1.0
 40
1.0
 40
2.0
 40
2.0
 40
2.0
 40
3.0
 40
3.0
 40
3.0
 40
4.0
 40
4.0
 40
4.0
 40
4.0
 10
8.313405013483209
 20
-8.923194512317574
 30
0.0
 10
8.313405013483209
 20
-9.54125006787313
 30
0.0
 10
7.503682960803088
 20
-10.04125006787313
 30
0.0
 10
6.505071510607776
 20
-10.04125006787313
 30
0.0
 10
5.506460060412463
 20
-10.04125006787313
 30
0.0
 10
4.69673885544282
 20
-9.53986109421319
 30
0.0
 10
4.69673885544282
 20
-8.923194512317574
 30
0.0
 10
4.69673885544282
 20
-8.305138956762018
 30
0.0
 10
5.506460908122967
 20
-7.805138956762018
 30
0.0
 10
6.505072358318279
 20
-7.805138956762018
 30
0.0
 10
7.503683808513592
 20
-7.805138956762018
 30
0.0
 10
8.313405013483209
 20
-8.305138956762018
 30
0.0
 10
8.313405013483209
 20
-8.923194512317574
 30
0.0
  0
SPLINE
  5
48
330
1F
100
AcDbEntity
  8
Layer 1
370
     0
100
AcDbSpline
210
0.0
220
0.0
230
1.0
 70
    11
 71
     3
 72
    68
 73
    64
 74
     0
 42
0.0000000001
 43
0.0000000001
 12
1.0
 22
0.0
 32
0.0
 13
1.0
 23
0.0
 33
0.0
 40
0.0
 40
0.0
 40
0.0
 40
0.0
 40
1.0
 40
1.0
 40
1.0
 40
2.0
 40
2.0
 40
2.0
 40
3.0
 40
3.0
 40
3.0
 40
4.0
 40
4.0
 40
4.0
 40
5.0
 40
5.0
 40
5.0
 40
6.0
 40
6.0
 40
6.0
 40
7.0
 40
7.0
 40
7.0
 40
8.0
 40
8.0
 40
8.0
 40
9.0
 40
9.0
 40
9.0
 40
10.0
 40
10.0
 40
10.0
 40
11.0
 40
11.0
 40
11.0
 40
12.0
 40
12.0
 40
12.0
 40
13.0
 40
13.0
 40
13.0
 40
14.0
 40
14.0
 40
14.0
 40
15.0
 40
15.0
 40
15.0
 40
16.0
 40
16.0
 40
16.0
 40
17.0
 40
17.0
 40
17.0
 40
18.0
 40
18.0
 40
18.0
 40
19.0
 40
19.0
 40
19.0
 40
20.0
 40
20.0
 40
20.0
 40
21.0
 40
21.0
 40
21.0
 40
21.0
 10
11.35706547741155
 20
-10.15876397992113
 30
0.0
 10
11.32234325518933
 20
-10.15320808528137
 30
0.0
 10
11.30845436630044
 20
-10.12681970501879
 30
0.0
 10
11.29595402721624
 20
-10.09765252972582
 30
0.0
 10
11.15984308564723
 20
-9.799041418614706
 30
0.0
 10
11.02373214407822
 20
-9.499041333843655
 30
0.0
 10
10.88345385767414
 20
-9.201819196392483
 30
0.0
 10
10.84317574081216
 20
-9.114319365934584
 30
0.0
 10
10.79178753009167
 20
-9.03098603260125
 30
0.0
 10
10.74595351858994
 20
-8.946263725607979
 30
0.0
 10
10.6876200157145
 20
-8.840708085281372
 30
0.0
 10
10.60984257702093
 20
-8.751819281163534
 30
0.0
 10
10.51817540172796
 20
-8.675430392274645
 30
0.0
 10
10.44456446015895
 20
-8.612930392274645
 30
0.0
 10
10.37928651283907
 20
-8.586541588156807
 30
0.0
 10
10.27095334904783
 20
-8.585152614496867
 30
0.0
 10
10.21956429061685
 20
-8.585152614496867
 30
0.0
 10
10.14595334904783
 20
-8.61987483671909
 30
0.0
 10
10.07789745440808
 20
-8.665708000510323
 30
0.0
 10
9.920953179505734
 20
-8.769874667176989
 30
0.0
 10
9.793175232185856
 20
-8.905985608745999
 30
0.0
 10
9.670953179505734
 20
-9.047652444954766
 30
0.0
 10
9.386230957283512
 20
-9.378207830968222
 30
0.0
 10
9.13900890460339
 20
-9.737929968419394
 30
0.0
 10
8.905675740812159
 20
-10.10598552397495
 30
0.0
 10
8.895953349047835
 20
-10.12265236018372
 30
0.0
 10
8.883453857674137
 20
-10.14209629600186
 30
0.0
 10
8.868175571270058
 20
-10.14765219064162
 30
0.0
 10
8.845953688132036
 20
-10.15598518489075
 30
0.0
 10
8.816786512839068
 20
-10.15737458240594
 30
0.0
 10
8.795953179505734
 20
-10.1490407404463
 30
0.0
 10
8.786230787741411
 20
-10.14487424332174
 30
0.0
 10
8.780675740812159
 20
-10.11015202109951
 30
0.0
 10
8.784842237936724
 20
-10.09070723757087
 30
0.0
 10
8.812620015714502
 20
-9.967095787375557
 30
0.0
 10
8.841786343296967
 20
-9.843485184890747
 30
0.0
 10
8.872342068394623
 20
-9.719873734695435
 30
0.0
 10
9.043175232185856
 20
-9.02681826391093
 30
0.0
 10
9.232064629701046
 20
-8.33931826391093
 30
0.0
 10
9.462619846172402
 20
-7.66431817913988
 30
0.0
 10
9.519563951532644
 20
-7.499040486133152
 30
0.0
 10
9.577897454408077
 20
-7.333762793126425
 30
0.0
 10
9.640397454408077
 20
-7.169873649924384
 30
0.0
 10
9.704286004212765
 20
-7.005984930577597
 30
0.0
 10
9.772341898852522
 20
-6.843484761035496
 30
0.0
 10
9.850119337546099
 20
-6.685151512473213
 30
0.0
 10
9.909841390226221
 20
-6.562929459793091
 30
0.0
 10
9.973730787741411
 20
-6.449040401362102
 30
0.0
 10
10.05289677623968
 20
-6.33931826391093
 30
0.0
 10
10.0751186593777
 20
-6.307373989008586
 30
0.0
 10
10.10567438447535
 20
-6.307373989008586
 30
0.0
 10
10.12789711532388
 20
-6.33931826391093
 30
0.0
 10
10.17928617375487
 20
-6.415707152799818
 30
0.0
 10
10.23206378199054
 20
-6.492096041688708
 30
0.0
 10
10.27373044865721
 20
-6.574040401362102
 30
0.0
 10
10.47234139022622
 20
-6.958762793126425
 30
0.0
 10
10.61817472355955
 20
-7.364318094368829
 30
0.0
 10
10.75428566512856
 20
-7.774040316591051
 30
0.0
 10
11.00984155976832
 20
-8.543484676264445
 30
0.0
 10
11.21678549558646
 20
-9.325428951166788
 30
0.0
 10
11.40150754826658
 20
-10.11431851822408
 30
0.0
 10
11.40984308564723
 20
-10.15459663508606
 30
0.0
 10
11.39734359427353
 20
-10.16570842436557
 30
0.0
 10
11.35706547741155
 20
-10.15876397992113
 30
0.0
  0
ENDSEC
  0
SECTION
  2
OBJECTS
  0
DICTIONARY
  5
C
330
0
100
AcDbDictionary
281
     1
  3
ACAD_GROUP
350
D
  3
ACAD_LAYOUT
350
1A
  3
ACAD_MATERIAL
350
3B
  3
ACAD_MLEADERSTYLE
350
4A
  3
ACAD_MLINESTYLE
350
17
  3
ACAD_PLOTSETTINGS
350
19
  3
ACAD_PLOTSTYLENAME
350
E
  3
ACAD_TABLESTYLE
350
49
  3
ACAD_VISUALSTYLE
350
2A
  0
SUN
  5
3F
330
29
100
AcDbSun
 90
        1
290
     0
 63
     7
421
 16777215
 40
1.0
291
     1
 91
  2455826
 92
 54000000
292
     0
 70
     2
 71
   256
280
     1
  0
DICTIONARY
  5
D
102
{ACAD_REACTORS
330
C
102
}
330
C
100
AcDbDictionary
281
     1
  0
DICTIONARY
  5
1A
102
{ACAD_REACTORS
330
C
102
}
330
C
100
AcDbDictionary
281
     1
  3
Layout1
350
1E
  3
Layout2
350
26
  3
Model
350
22
  0
DICTIONARY
  5
3B
102
{ACAD_REACTORS
330
C
102
}
330
C
100
AcDbDictionary
281
     1
  3
ByBlock
350
3D
  3
ByLayer
350
3C
  3
Global
350
3E
  0
DICTIONARY
  5
4A
102
{ACAD_REACTORS
330
C
102
}
330
C
100
AcDbDictionary
281
     1
  0
DICTIONARY
  5
17
102
{ACAD_REACTORS
330
C
102
}
330
C
100
AcDbDictionary
281
     1
  3
Standard
350
18
  0
DICTIONARY
  5
19
102
{ACAD_REACTORS
330
C
102
}
330
C
100
AcDbDictionary
281
     1
  0
ACDBDICTIONARYWDFLT
  5
E
102
{ACAD_REACTORS
330
C
102
}
330
C
100
AcDbDictionary
281
     1
  3
Normal
350
F
100
AcDbDictionaryWithDefault
340
F
  0
DICTIONARY
  5
49
102
{ACAD_REACTORS
330
C
102
}
330
C
100
AcDbDictionary
281
     1
  0
DICTIONARY
  5
2A
102
{ACAD_REACTORS
330
C
102
}
330
C
100
AcDbDictionary
281
     1
  3
2dWireframe
350
2F
  3
3D Hidden
350
31
  3
3dWireframe
350
30
  3
Basic
350
32
  3
Brighten
350
36
  3
ColorChange
350
3A
  3
Conceptual
350
34
  3
Dim
350
35
  3
Facepattern
350
39
  3
Flat
350
2B
  3
FlatWithEdges
350
2C
  3
Gouraud
350
2D
  3
GouraudWithEdges
350
2E
  3
Linepattern
350
38
  3
Realistic
350
33
  3
Thicken
350
37
  0
LAYOUT
  5
1E
102
{ACAD_REACTORS
330
1A
102
}
330
1A
100
AcDbPlotSettings
  1

  2
none_device
  4

  6

 40
0.0
 41
0.0
 42
0.0
 43
0.0
 44
0.0
 45
0.0
 46
0.0
 47
0.0
 48
0.0
 49
0.0
140
0.0
141
0.0
142
1.0
143
1.0
 70
   688
 72
     0
 73
     0
 74
     5
  7

 75
    16
 76
     0
 77
     2
 78
   300
147
1.0
148
0.0
149
0.0
100
AcDbLayout
  1
Layout1
 70
     1
 71
     1
 10
0.0
 20
0.0
 11
12.0
 21
9.0
 12
0.0
 22
0.0
 32
0.0
 14
1.000000000000000E+20
 24
1.000000000000000E+20
 34
1.000000000000000E+20
 15
-1.000000000000000E+20
 25
-1.000000000000000E+20
 35
-1.000000000000000E+20
146
0.0
 13
0.0
 23
0.0
 33
0.0
 16
1.0
 26
0.0
 36
0.0
 17
0.0
 27
1.0
 37
0.0
 76
     0
330
1B
  0
LAYOUT
  5
26
102
{ACAD_REACTORS
330
1A
102
}
330
1A
100
AcDbPlotSettings
  1

  2
none_device
  4

  6

 40
0.0
 41
0.0
 42
0.0
 43
0.0
 44
0.0
 45
0.0
 46
0.0
 47
0.0
 48
0.0
 49
0.0
140
0.0
141
0.0
142
1.0
143
1.0
 70
   688
 72
     0
 73
     0
 74
     5
  7

 75
    16
 76
     0
 77
     2
 78
   300
147
1.0
148
0.0
149
0.0
100
AcDbLayout
  1
Layout2
 70
     1
 71
     2
 10
0.0
 20
0.0
 11
0.0
 21
0.0
 12
0.0
 22
0.0
 32
0.0
 14
0.0
 24
0.0
 34
0.0
 15
0.0
 25
0.0
 35
0.0
146
0.0
 13
0.0
 23
0.0
 33
0.0
 16
1.0
 26
0.0
 36
0.0
 17
0.0
 27
1.0
 37
0.0
 76
     0
330
23
  0
LAYOUT
  5
22
102
{ACAD_REACTORS
330
1A
102
}
330
1A
100
AcDbPlotSettings
  1

  2
none_device
  4

  6

 40
0.0
 41
0.0
 42
0.0
 43
0.0
 44
0.0
 45
0.0
 46
0.0
 47
0.0
 48
0.0
 49
0.0
140
0.0
141
0.0
142
1.0
143
1.0
 70
  1712
 72
     0
 73
     0
 74
     0
  7

 75
     0
 76
     0
 77
     2
 78
   300
147
1.0
148
0.0
149
0.0
100
AcDbLayout
  1
Model
 70
     1
 71
     0
 10
0.0
 20
0.0
 11
12.0
 21
9.0
 12
0.0
 22
0.0
 32
0.0
 14
1.000000000000000E+20
 24
1.000000000000000E+20
 34
1.000000000000000E+20
 15
-1.000000000000000E+20
 25
-1.000000000000000E+20
 35
-1.000000000000000E+20
146
0.0
 13
0.0
 23
0.0
 33
0.0
 16
1.0
 26
0.0
 36
0.0
 17
0.0
 27
1.0
 37
0.0
 76
     0
330
1F
331
29
  0
MATERIAL
  5
3D
102
{ACAD_REACTORS
330
3B
102
}
330
3B
100
AcDbMaterial
  1
ByBlock
 72
     1
 94
      127
  0
MATERIAL
  5
3C
102
{ACAD_REACTORS
330
3B
102
}
330
3B
100
AcDbMaterial
  1
ByLayer
 72
     1
 94
      127
  0
MATERIAL
  5
3E
102
{ACAD_REACTORS
330
3B
102
}
330
3B
100
AcDbMaterial
  1
Global
 72
     1
 94
      127
  0
MLINESTYLE
  5
18
102
{ACAD_REACTORS
330
17
102
}
330
17
100
AcDbMlineStyle
  2
Standard
 70
     0
  3

 62
   256
 51
90.0
 52
90.0
 71
     2
 49
0.5
 62
   256
  6
BYLAYER
 49
-0.5
 62
   256
  6
BYLAYER
  0
ACDBPLACEHOLDER
  5
F
102
{ACAD_REACTORS
330
E
102
}
330
E
  0
VISUALSTYLE
  5
2F
102
{ACAD_REACTORS
330
2A
102
}
330
2A
100
AcDbVisualStyle
  2
2dWireframe
 70
     4
177
     2
291
     0
 71
     0
176
     1
 72
     2
176
     1
 73
     0
176
     1
 90
        0
176
     1
 40
-0.6
176
     1
 41
-30.0
176
     1
 62
     5
 63
     7
421
 16777215
176
     1
 74
     1
176
     1
 91
        4
176
     1
 64
     7
176
     1
 65
   257
176
     1
 75
     1
176
     1
175
     1
176
     1
 42
1.0
176
     1
 92
        0
176
     1
 66
   257
176
     1
 43
1.0
176
     1
 76
     1
176
     1
 77
     6
176
     1
 78
     2
176
     1
 67
     7
176
     1
 79
     5
176
     1
170
     0
176
     1
171
     0
176
     1
290
     0
176
     1
 93
        1
176
     1
 44
0.0
176
     1
173
     0
176
     1
  0
VISUALSTYLE
  5
31
102
{ACAD_REACTORS
330
2A
102
}
330
2A
100
AcDbVisualStyle
  2
3D Hidden
 70
     6
177
     2
291
     0
 71
     1
176
     1
 72
     2
176
     1
 73
     2
176
     1
 90
        0
176
     1
 40
-0.6
176
     1
 41
-30.0
176
     1
 62
     5
 63
     7
421
 16777215
176
     1
 74
     2
176
     1
 91
        2
176
     1
 64
     7
176
     1
 65
   257
176
     1
 75
     2
176
     1
175
     1
176
     1
 42
40.0
176
     1
 92
        0
176
     1
 66
   257
176
     1
 43
1.0
176
     1
 76
     1
176
     1
 77
     6
176
     1
 78
     2
176
     1
 67
     7
176
     1
 79
     3
176
     1
170
     0
176
     1
171
     0
176
     1
290
     0
176
     1
 93
        1
176
     1
 44
0.0
176
     1
173
     0
176
     1
  0
VISUALSTYLE
  5
30
102
{ACAD_REACTORS
330
2A
102
}
330
2A
100
AcDbVisualStyle
  2
3dWireframe
 70
     5
177
     2
291
     0
 71
     0
176
     1
 72
     2
176
     1
 73
     0
176
     1
 90
        0
176
     1
 40
-0.6
176
     1
 41
-30.0
176
     1
 62
     5
 63
     7
421
 16777215
176
     1
 74
     1
176
     1
 91
        4
176
     1
 64
     7
176
     1
 65
   257
176
     1
 75
     1
176
     1
175
     1
176
     1
 42
1.0
176
     1
 92
        0
176
     1
 66
   257
176
     1
 43
1.0
176
     1
 76
     1
176
     1
 77
     6
176
     1
 78
     2
176
     1
 67
     7
176
     1
 79
     5
176
     1
170
     0
176
     1
171
     0
176
     1
290
     0
176
     1
 93
        1
176
     1
 44
0.0
176
     1
173
     0
176
     1
  0
VISUALSTYLE
  5
32
102
{ACAD_REACTORS
330
2A
102
}
330
2A
100
AcDbVisualStyle
  2
Basic
 70
     7
177
     2
291
     1
 71
     1
176
     1
 72
     0
176
     1
 73
     1
176
     1
 90
        0
176
     1
 40
-0.6
176
     1
 41
-30.0
176
     1
 62
     5
 63
     7
421
 16777215
176
     1
 74
     0
176
     1
 91
        4
176
     1
 64
     7
176
     1
 65
   257
176
     1
 75
     1
176
     1
175
     1
176
     1
 42
1.0
176
     1
 92
        8
176
     1
 66
     7
176
     1
 43
1.0
176
     1
 76
     1
176
     1
 77
     6
176
     1
 78
     2
176
     1
 67
     7
176
     1
 79
     5
176
     1
170
     0
176
     1
171
     0
176
     1
290
     0
176
     1
 93
        1
176
     1
 44
0.0
176
     1
173
     0
176
     1
  0
VISUALSTYLE
  5
36
102
{ACAD_REACTORS
330
2A
102
}
330
2A
100
AcDbVisualStyle
  2
Brighten
 70
    12
177
     2
291
     1
 71
     2
176
     1
 72
     2
176
     1
 73
     0
176
     1
 90
        0
176
     1
 40
-0.6
176
     1
 41
-30.0
176
     1
 62
     5
 63
     7
421
 16777215
176
     1
 74
     1
176
     1
 91
        4
176
     1
 64
     7
176
     1
 65
   257
176
     1
 75
     1
176
     1
175
     1
176
     1
 42
1.0
176
     1
 92
        8
176
     1
 66
     7
176
     1
 43
1.0
176
     1
 76
     1
176
     1
 77
     6
176
     1
 78
     2
176
     1
 67
     7
176
     1
 79
     5
176
     1
170
     0
176
     1
171
     0
176
     1
290
     0
176
     1
 93
        1
176
     1
 44
50.0
176
     1
173
     0
176
     1
  0
VISUALSTYLE
  5
3A
102
{ACAD_REACTORS
330
2A
102
}
330
2A
100
AcDbVisualStyle
  2
ColorChange
 70
    16
177
     2
291
     1
 71
     2
176
     1
 72
     2
176
     1
 73
     3
176
     1
 90
        0
176
     1
 40
-0.6
176
     1
 41
-30.0
176
     1
 62
     5
 63
     8
421
  8421504
176
     1
 74
     1
176
     1
 91
        4
176
     1
 64
     7
176
     1
 65
   257
176
     1
 75
     1
176
     1
175
     1
176
     1
 42
1.0
176
     1
 92
        8
176
     1
 66
     8
424
  8421504
176
     1
 43
1.0
176
     1
 76
     1
176
     1
 77
     6
176
     1
 78
     2
176
     1
 67
     7
176
     1
 79
     5
176
     1
170
     0
176
     1
171
     0
176
     1
290
     0
176
     1
 93
        1
176
     1
 44
0.0
176
     1
173
     0
176
     1
  0
VISUALSTYLE
  5
34
102
{ACAD_REACTORS
330
2A
102
}
330
2A
100
AcDbVisualStyle
  2
Conceptual
 70
     9
177
     2
291
     0
 71
     3
176
     1
 72
     2
176
     1
 73
     0
176
     1
 90
        0
176
     1
 40
-0.6
176
     1
 41
-30.0
176
     1
 62
     5
 63
     7
421
 16777215
176
     1
 74
     2
176
     1
 91
        2
176
     1
 64
     7
176
     1
 65
   257
176
     1
 75
     1
176
     1
175
     1
176
     1
 42
40.0
176
     1
 92
        8
176
     1
 66
     7
176
     1
 43
1.0
176
     1
 76
     1
176
     1
 77
     6
176
     1
 78
     2
176
     1
 67
     7
176
     1
 79
     3
176
     1
170
     0
176
     1
171
     0
176
     1
290
     0
176
     1
 93
        1
176
     1
 44
0.0
176
     1
173
     0
176
     1
  0
VISUALSTYLE
  5
35
102
{ACAD_REACTORS
330
2A
102
}
330
2A
100
AcDbVisualStyle
  2
Dim
 70
    11
177
     2
291
     1
 71
     2
176
     1
 72
     2
176
     1
 73
     0
176
     1
 90
        0
176
     1
 40
-0.6
176
     1
 41
-30.0
176
     1
 62
     5
 63
     7
421
 16777215
176
     1
 74
     1
176
     1
 91
        4
176
     1
 64
     7
176
     1
 65
   257
176
     1
 75
     1
176
     1
175
     1
176
     1
 42
1.0
176
     1
 92
        8
176
     1
 66
     7
176
     1
 43
1.0
176
     1
 76
     1
176
     1
 77
     6
176
     1
 78
     2
176
     1
 67
     7
176
     1
 79
     5
176
     1
170
     0
176
     1
171
     0
176
     1
290
     0
176
     1
 93
        1
176
     1
 44
-50.0
176
     1
173
     0
176
     1
  0
VISUALSTYLE
  5
39
102
{ACAD_REACTORS
330
2A
102
}
330
2A
100
AcDbVisualStyle
  2
Facepattern
 70
    15
177
     2
291
     1
 71
     2
176
     1
 72
     2
176
     1
 73
     0
176
     1
 90
        0
176
     1
 40
-0.6
176
     1
 41
-30.0
176
     1
 62
     5
 63
     7
421
 16777215
176
     1
 74
     1
176
     1
 91
        4
176
     1
 64
     7
176
     1
 65
   257
176
     1
 75
     1
176
     1
175
     1
176
     1
 42
1.0
176
     1
 92
        8
176
     1
 66
     7
176
     1
 43
1.0
176
     1
 76
     1
176
     1
 77
     6
176
     1
 78
     2
176
     1
 67
     7
176
     1
 79
     5
176
     1
170
     0
176
     1
171
     0
176
     1
290
     0
176
     1
 93
        1
176
     1
 44
0.0
176
     1
173
     0
176
     1
  0
VISUALSTYLE
  5
2B
102
{ACAD_REACTORS
330
2A
102
}
330
2A
100
AcDbVisualStyle
  2
Flat
 70
     0
177
     2
291
     1
 71
     2
176
     1
 72
     1
176
     1
 73
     1
176
     1
 90
        2
176
     1
 40
-0.6
176
     1
 41
30.0
176
     1
 62
     5
 63
     7
421
 16777215
176
     1
 74
     0
176
     1
 91
        4
176
     1
 64
     7
176
     1
 65
   257
176
     1
 75
     1
176
     1
175
     1
176
     1
 42
1.0
176
     1
 92
        8
176
     1
 66
     7
176
     1
 43
1.0
176
     1
 76
     1
176
     1
 77
     6
176
     1
 78
     2
176
     1
 67
     7
176
     1
 79
     5
176
     1
170
     0
176
     1
171
     0
176
     1
290
     0
176
     1
 93
       13
176
     1
 44
0.0
176
     1
173
     0
176
     1
  0
VISUALSTYLE
  5
2C
102
{ACAD_REACTORS
330
2A
102
}
330
2A
100
AcDbVisualStyle
  2
FlatWithEdges
 70
     1
177
     2
291
     1
 71
     2
176
     1
 72
     1
176
     1
 73
     1
176
     1
 90
        2
176
     1
 40
-0.6
176
     1
 41
30.0
176
     1
 62
     5
 63
     7
421
 16777215
176
     1
 74
     1
176
     1
 91
        4
176
     1
 64
     7
176
     1
 65
   257
176
     1
 75
     1
176
     1
175
     1
176
     1
 42
1.0
176
     1
 92
        0
176
     1
 66
   257
176
     1
 43
1.0
176
     1
 76
     1
176
     1
 77
     6
176
     1
 78
     2
176
     1
 67
     7
176
     1
 79
     5
176
     1
170
     0
176
     1
171
     0
176
     1
290
     0
176
     1
 93
       13
176
     1
 44
0.0
176
     1
173
     0
176
     1
  0
VISUALSTYLE
  5
2D
102
{ACAD_REACTORS
330
2A
102
}
330
2A
100
AcDbVisualStyle
  2
Gouraud
 70
     2
177
     2
291
     1
 71
     2
176
     1
 72
     2
176
     1
 73
     1
176
     1
 90
        2
176
     1
 40
-0.6
176
     1
 41
30.0
176
     1
 62
     5
 63
     7
421
 16777215
176
     1
 74
     0
176
     1
 91
        4
176
     1
 64
     7
176
     1
 65
   257
176
     1
 75
     1
176
     1
175
     1
176
     1
 42
1.0
176
     1
 92
        0
176
     1
 66
     7
176
     1
 43
1.0
176
     1
 76
     1
176
     1
 77
     6
176
     1
 78
     2
176
     1
 67
     7
176
     1
 79
     5
176
     1
170
     0
176
     1
171
     0
176
     1
290
     0
176
     1
 93
       13
176
     1
 44
0.0
176
     1
173
     0
176
     1
  0
VISUALSTYLE
  5
2E
102
{ACAD_REACTORS
330
2A
102
}
330
2A
100
AcDbVisualStyle
  2
GouraudWithEdges
 70
     3
177
     2
291
     1
 71
     2
176
     1
 72
     2
176
     1
 73
     1
176
     1
 90
        2
176
     1
 40
-0.6
176
     1
 41
30.0
176
     1
 62
     5
 63
     7
421
 16777215
176
     1
 74
     1
176
     1
 91
        4
176
     1
 64
     7
176
     1
 65
   257
176
     1
 75
     1
176
     1
175
     1
176
     1
 42
1.0
176
     1
 92
        0
176
     1
 66
   257
176
     1
 43
1.0
176
     1
 76
     1
176
     1
 77
     6
176
     1
 78
     2
176
     1
 67
     7
176
     1
 79
     5
176
     1
170
     0
176
     1
171
     0
176
     1
290
     0
176
     1
 93
       13
176
     1
 44
0.0
176
     1
173
     0
176
     1
  0
VISUALSTYLE
  5
38
102
{ACAD_REACTORS
330
2A
102
}
330
2A
100
AcDbVisualStyle
  2
Linepattern
 70
    14
177
     2
291
     1
 71
     2
176
     1
 72
     2
176
     1
 73
     0
176
     1
 90
        0
176
     1
 40
-0.6
176
     1
 41
-30.0
176
     1
 62
     5
 63
     7
421
 16777215
176
     1
 74
     1
176
     1
 91
        4
176
     1
 64
     7
176
     1
 65
   257
176
     1
 75
     7
176
     1
175
     7
176
     1
 42
1.0
176
     1
 92
        8
176
     1
 66
     7
176
     1
 43
1.0
176
     1
 76
     1
176
     1
 77
     6
176
     1
 78
     2
176
     1
 67
     7
176
     1
 79
     5
176
     1
170
     0
176
     1
171
     0
176
     1
290
     0
176
     1
 93
        1
176
     1
 44
0.0
176
     1
173
     0
176
     1
  0
VISUALSTYLE
  5
33
102
{ACAD_REACTORS
330
2A
102
}
330
2A
100
AcDbVisualStyle
  2
Realistic
 70
     8
177
     2
291
     0
 71
     2
176
     1
 72
     2
176
     1
 73
     0
176
     1
 90
        0
176
     1
 40
-0.6
176
     1
 41
-30.0
176
     1
 62
     5
 63
     7
421
 16777215
176
     1
 74
     1
176
     1
 91
        0
176
     1
 64
     7
176
     1
 65
   257
176
     1
 75
     1
176
     1
175
     1
176
     1
 42
1.0
176
     1
 92
        8
176
     1
 66
     8
424
  7895160
176
     1
 43
1.0
176
     1
 76
     1
176
     1
 77
     6
176
     1
 78
     2
176
     1
 67
     7
176
     1
 79
     5
176
     1
170
     0
176
     1
171
     0
176
     1
290
     0
176
     1
 93
       13
176
     1
 44
0.0
176
     1
173
     0
176
     1
  0
VISUALSTYLE
  5
37
102
{ACAD_REACTORS
330
2A
102
}
330
2A
100
AcDbVisualStyle
  2
Thicken
 70
    13
177
     2
291
     1
 71
     2
176
     1
 72
     2
176
     1
 73
     0
176
     1
 90
        0
176
     1
 40
-0.6
176
     1
 41
-30.0
176
     1
 62
     5
 63
     7
421
 16777215
176
     1
 74
     1
176
     1
 91
        4
176
     1
 64
     7
176
     1
 65
   257
176
     1
 75
     1
176
     1
175
     1
176
     1
 42
1.0
176
     1
 92
       12
176
     1
 66
     7
176
     1
 43
1.0
176
     1
 76
     1
176
     1
 77
     6
176
     1
 78
     2
176
     1
 67
     7
176
     1
 79
     5
176
     1
170
     0
176
     1
171
     0
176
     1
290
     0
176
     1
 93
        1
176
     1
 44
0.0
176
     1
173
     0
176
     1
  0
ENDSEC
  0
EOF
